<svg version="1.1" viewBox="0.0 0.0 960.0 540.0" fill="none" stroke="none" stroke-linecap="square" stroke-miterlimit="10" xmlns:xlink="http://www.w3.org/1999/xlink" xmlns="http://www.w3.org/2000/svg"><clipPath id="p.0"><path d="m0 0l960.0 0l0 540.0l-960.0 0l0 -540.0z" clip-rule="nonzero"/></clipPath><g clip-path="url(#p.0)"><path fill="#ffffff" d="m0 0l960.0 0l0 540.0l-960.0 0z" fill-rule="evenodd"/><path fill="#000000" fill-opacity="0.0" d="m125.333336 313.33334l118.67716 0l0 42.015747l-118.67716 0z" fill-rule="evenodd"/><path fill="#ff0000" d="m144.58333 340.44083l-0.453125 0l-2.859375 -6.640625l-2.859375 6.640625l-0.453125 0l-3.484375 -9.96875l1.84375 0l2.09375 6.40625l2.59375 -6.40625l0.453125 0l2.671875 6.40625l2.25 -6.40625l1.703125 0l-3.5 9.96875zm10.367249 -1.3125q-1.03125 1.3125 -3.171875 1.3125q-1.15625 0 -2.0 -0.828125q-0.828125 -0.84375 -0.828125 -2.078125q0 -1.484375 1.296875 -2.515625q1.296875 -1.03125 3.3125 -1.03125q0.546875 0 1.234375 0.25q0 -2.375 -2.109375 -2.375q-1.625 0 -2.5 0.875l-0.734375 -1.453125q0.5 -0.390625 1.359375 -0.671875q0.875 -0.296875 1.671875 -0.296875q2.125 0 3.078125 0.96875q0.96875 0.96875 0.96875 3.0625l0 3.5q0 1.28125 0.765625 1.71875l0 0.859375q-1.0625 0 -1.59375 -0.296875q-0.515625 -0.296875 -0.75 -1.0zm-0.15625 -3.671875q-0.828125 -0.171875 -1.15625 -0.171875q-1.296875 0 -2.140625 0.671875q-0.828125 0.671875 -0.828125 1.59375q0 1.515625 1.796875 1.515625q1.3125 0 2.328125 -1.25l0 -2.359375zm6.239319 -8.65625q0.453125 0 0.765625 0.328125q0.3125 0.3125 0.3125 0.75q0 0.4375 -0.3125 0.75q-0.3125 0.3125 -0.765625 0.3125q-0.4375 0 -0.75 -0.3125q-0.3125 -0.3125 -0.3125 -0.75q0 -0.453125 0.296875 -0.765625q0.3125 -0.3125 0.765625 -0.3125zm-0.953125 13.453125l0 -8.296875l-1.328125 0l0 -1.453125l3.0625 0l0 9.75l-1.734375 0zm8.007446 0.1875l-0.453125 0l-4.1875 -9.96875l1.890625 0l2.578125 6.828125l2.640625 -6.828125l1.8125 0l-4.28125 9.96875zm13.839951 -4.890625l-7.046875 0q0 1.703125 0.953125 2.625q0.828125 0.796875 2.125 0.796875q1.484375 0 2.484375 -0.859375l0.71875 1.25q-0.390625 0.40625 -1.234375 0.6875q-1.03125 0.390625 -2.3125 0.390625q-1.828125 0 -3.125 -1.25q-1.421875 -1.375 -1.421875 -3.703125q0 -2.40625 1.46875 -3.875q1.3125 -1.296875 3.109375 -1.296875q2.078125 0 3.265625 1.171875q1.140625 1.125 1.140625 3.0q0 0.578125 -0.125 1.0625zm-4.203125 -3.78125q-1.15625 0 -1.9375 0.75q-0.75 0.71875 -0.859375 1.765625l5.40625 0q0 -1.046875 -0.65625 -1.75q-0.71875 -0.765625 -1.953125 -0.765625zm11.456558 0.390625q-0.5625 -0.390625 -1.140625 -0.390625q-0.921875 0 -1.609375 0.859375q-0.6875 0.84375 -0.6875 2.03125l0 5.59375l-1.734375 0l0 -9.75l1.734375 0l0 1.546875q0.953125 -1.734375 2.8125 -1.734375q0.46875 0 1.34375 0.15625l-0.71875 1.6875zm3.9386597 5.53125q0.578125 0 0.96875 0.40625q0.40625 0.390625 0.40625 0.96875q0 0.5625 -0.40625 0.96875q-0.390625 0.40625 -0.96875 0.40625q-0.5625 0 -0.96875 -0.40625q-0.390625 -0.40625 -0.390625 -0.96875q0 -0.578125 0.390625 -0.96875q0.40625 -0.40625 0.96875 -0.40625zm4.225342 1.984375l0.609375 -1.640625q1.453125 0.9375 2.328125 0.9375q1.609375 0 1.609375 -1.34375q0 -0.96875 -1.546875 -1.65625q-1.203125 -0.546875 -1.625 -0.828125q-0.40625 -0.28125 -0.71875 -0.640625q-0.296875 -0.359375 -0.453125 -0.765625q-0.140625 -0.40625 -0.140625 -0.875q0 -1.203125 0.875 -1.875q0.875 -0.671875 2.28125 -0.671875q1.0625 0 2.6875 0.671875l-0.484375 1.609375q-1.03125 -0.828125 -2.078125 -0.828125q-0.609375 0 -1.03125 0.296875q-0.421875 0.296875 -0.421875 0.734375q0 0.9375 1.0625 1.421875l1.234375 0.5625q1.140625 0.515625 1.65625 1.1875q0.515625 0.671875 0.515625 1.671875q0 1.3125 -0.921875 2.0625q-0.90625 0.734375 -2.546875 0.734375q-1.53125 0 -2.890625 -0.765625zm9.973648 -12.875q0.453125 0 0.765625 0.328125q0.3125 0.3125 0.3125 0.75q0 0.4375 -0.3125 0.75q-0.3125 0.3125 -0.765625 0.3125q-0.4375 0 -0.75 -0.3125q-0.3125 -0.3125 -0.3125 -0.75q0 -0.453125 0.296875 -0.765625q0.3125 -0.3125 0.765625 -0.3125zm-0.953125 13.453125l0 -8.296875l-1.328125 0l0 -1.453125l3.0625 0l0 9.75l-1.734375 0zm5.1011963 -8.390625l-1.125 0l0 -1.359375l1.125 0l0 -2.046875l1.734375 -0.671875l0 2.71875l2.6875 0l0 1.359375l-2.6875 0l0 4.84375q0 1.234375 0.40625 1.75q0.421875 0.515625 1.34375 0.515625q0.671875 0 1.375 -0.328125l0.25 1.515625q-1.0625 0.28125 -2.359375 0.28125q-1.15625 0 -1.953125 -0.859375q-0.796875 -0.875 -0.796875 -2.171875l0 -5.546875zm15.006287 3.6875l-7.046875 0q0 1.703125 0.953125 2.625q0.828125 0.796875 2.125 0.796875q1.484375 0 2.484375 -0.859375l0.71875 1.25q-0.390625 0.40625 -1.234375 0.6875q-1.03125 0.390625 -2.3125 0.390625q-1.828125 0 -3.125 -1.25q-1.421875 -1.375 -1.421875 -3.703125q0 -2.40625 1.46875 -3.875q1.3125 -1.296875 3.109375 -1.296875q2.078125 0 3.265625 1.171875q1.140625 1.125 1.140625 3.0q0 0.578125 -0.125 1.0625zm-4.203125 -3.78125q-1.15625 0 -1.9375 0.75q-0.75 0.71875 -0.859375 1.765625l5.40625 0q0 -1.046875 -0.65625 -1.75q-0.71875 -0.765625 -1.953125 -0.765625z" fill-rule="nonzero"/><path fill="#ff0000" d="m108.95433 331.34534l18.11277 0l0 5.9917297l-18.11277 0z" fill-rule="evenodd"/><path fill="#ff0000" d="m121.006584 325.28482l0 18.112762l-5.9917374 0l0 -18.112762z" fill-rule="evenodd"/><path fill="#000000" fill-opacity="0.0" d="m107.01313 334.34122l0 0c0 -6.073822 4.9237823 -10.997589 10.9975815 -10.997589l0 0c2.9167404 0 5.71402 1.1586609 7.7764664 3.2210999c2.0624542 2.0624695 3.2211227 4.859741 3.2211227 7.7764893l0 0c0 6.0737915 -4.92379 10.997589 -10.997589 10.997589l0 0c-6.073799 0 -10.9975815 -4.9237976 -10.9975815 -10.997589z" fill-rule="evenodd"/><path stroke="#eeeeee" stroke-width="1.0" stroke-linejoin="round" stroke-linecap="butt" d="m107.01313 334.34122l0 0c0 -6.073822 4.9237823 -10.997589 10.9975815 -10.997589l0 0c2.9167404 0 5.71402 1.1586609 7.7764664 3.2210999c2.0624542 2.0624695 3.2211227 4.859741 3.2211227 7.7764893l0 0c0 6.0737915 -4.92379 10.997589 -10.997589 10.997589l0 0c-6.073799 0 -10.9975815 -4.9237976 -10.9975815 -10.997589z" fill-rule="evenodd"/></g></svg>